<?xml version="1.0" standalone="no"?><!DOCTYPE svg PUBLIC "-//W3C//DTD SVG 1.1//EN" "http://www.w3.org/Graphics/SVG/1.1/DTD/svg11.dtd"><svg t="1587542318204" class="icon" viewBox="0 0 1024 1024" version="1.1" xmlns="http://www.w3.org/2000/svg" p-id="9105" xmlns:xlink="http://www.w3.org/1999/xlink" width="200" height="200"><defs><style type="text/css"></style></defs><path d="M991.837 503.307c0-168.445-118.607-305.403-264.451-305.403-34.771 0-68.093 7.92-98.614 22.118C579.61 95.33 471.048 8.21 345.004 8.21c-171.73 0-311.489 161.78-311.489 360.554 0 170.956 103.54 314.386 241.657 351.281l-25.885 76.593h69.735l-8.79 33.708c-5.505 21.056 0 43.174 14.778 59.11 6.278 6.858 7.437 16.903 2.995 25.113l-39.89 70.893c-5.699 10.142-2.125 22.988 8.113 28.686a21.187 21.187 0 0 0 10.335 2.705c7.34 0 14.487-3.864 18.35-10.721l39.89-70.894c13.62-24.05 10.046-53.895-8.692-74.274-4.926-5.41-6.858-12.846-4.926-19.994l11.687-44.332h78.234l-25.885-76.593c33.709-8.982 65.389-24.146 93.978-44.622 39.31 66.45 100.642 113.97 171.73 128.748l-11.977 35.35h40.469l-2.222 8.693c-4.346 16.71 0 34.385 11.784 47.23 2.511 2.705 2.994 6.858 1.159 10.046l-28.107 49.451c-5.698 10.142-2.124 22.988 8.114 28.686a21.187 21.187 0 0 0 10.334 2.705c7.34 0 14.488-3.864 18.352-10.721l27.913-49.549c10.72-19.22 8.016-42.98-6.858-59.11-1.932-2.125-2.8-5.216-2.125-8.017l5.12-19.413h30.617l-11.783-34.964c124.691-24.34 220.118-150.094 220.118-301.25z m-684.019 251.22l8.21-24.147h57.951l8.21 24.146h-74.37z m181.87-117.256c-41.82 31.487-91.37 50.032-144.684 50.032-148.646 0-269.57-142.947-269.57-318.54S196.357 50.225 345.003 50.225c110.204 0 205.244 78.525 246.872 190.854 5.12 13.715 9.369 27.913 12.846 42.69 6.375 27.044 9.852 55.537 9.852 84.996 0 94.943-35.35 180.421-91.37 238.76-10.528 11.01-21.732 20.862-33.515 29.747zM727.29 766.793c-77.558 0-145.747-47.23-185.637-118.607 70.024-66.161 114.84-166.804 114.84-279.422 0-37.958-5.12-74.371-14.488-108.756 26.271-13.039 54.957-20.186 85.285-20.186 122.567 0 222.34 118.124 222.34 263.485 0.097 145.362-99.676 263.486-222.34 263.486zM320.471 135.799c4.926 10.432 0.29 22.988-10.142 27.914-66.74 31.1-115.42 92.722-130.197 165.064-2.125 10.045-10.72 16.903-20.573 16.903-1.352 0-2.8-0.193-4.153-0.483a21.157 21.157 0 0 1-16.42-24.823c17.483-85.092 74.854-158.014 153.668-194.716 10.335-4.926 22.891-0.483 27.817 10.141zM869.367 611c-11.011 41.532-41.532 75.916-81.519 91.66-2.51 1.062-5.215 1.449-7.727 1.449-8.402 0-16.322-5.12-19.606-13.33-4.347-10.72 1.062-22.987 11.783-27.333 27.624-11.01 48.872-34.674 56.406-63.457 2.994-11.203 14.488-17.964 25.692-14.97 11.204 3.187 17.965 14.777 14.97 25.981z" fill="#ffffff" p-id="9106"></path><path d="M306.563 1017.046c-3.574 0-7.244-0.966-10.432-2.705-4.926-2.8-8.5-7.243-10.045-12.749a20.936 20.936 0 0 1 1.932-16.13l39.89-70.893c4.443-8.21 3.187-18.159-2.994-25.016-14.778-15.937-20.283-38.055-14.778-59.207l8.79-33.515H249.19l0.096-0.193 25.885-76.496c-33.998-9.08-66.257-24.726-95.91-46.361-29.168-21.346-54.956-47.907-76.592-79.007-22.118-31.39-39.117-66.451-50.9-104.12-12.17-39.02-18.351-80.069-18.351-121.89 0-198.87 139.759-360.65 311.585-360.65 60.945 0 119.959 20.475 170.763 59.206 24.436 18.641 46.554 41.146 65.678 67.03 19.22 25.885 35.157 54.668 47.327 85.575 31.487-14.68 64.712-22.118 98.517-22.118 145.844 0 264.548 137.055 264.548 305.5 0 36.993-5.699 73.116-16.902 107.5-3.188 9.852-6.858 19.414-10.915 28.783 17.676-41.146 27.527-87.507 27.527-136.283C991.547 334.96 872.94 198 727.193 198c-33.902 0-67.03 7.437-98.518 22.118l0.097 0.097v-0.097C577.968 91.467 466.605 8.403 345.004 8.403c-171.633 0-311.296 161.684-311.296 360.36 0 166.128 101.608 313.807 241.56 351.186h0.097v0.096l-25.788 76.4h69.735v0.193l-8.79 33.708c-5.505 21.056 0 43.077 14.778 59.014 6.278 6.857 7.437 16.999 2.994 25.209l-39.89 70.893c-2.704 4.926-3.38 10.528-1.931 15.937 1.545 5.409 5.022 9.852 9.948 12.556 3.187 1.739 6.664 2.704 10.238 2.704 7.534 0 14.585-4.056 18.255-10.624l39.89-70.894c13.522-23.953 10.045-53.701-8.693-74.177-5.023-5.506-6.858-13.04-4.926-20.09l11.687-44.43h78.138l-25.885-76.592h0.096c33.419-8.886 65.099-23.953 93.978-44.622l0.097-0.097 0.096 0.097c39.89 67.416 102.477 114.26 171.633 128.652h0.096v0.096l-11.88 35.157h40.47l-2.222 8.886c-4.346 16.71 0 34.385 11.784 47.134 2.51 2.8 2.994 6.954 1.159 10.141l-28.107 49.452c-2.704 4.926-3.38 10.528-1.931 15.937 1.545 5.409 5.022 9.852 9.948 12.556 3.187 1.738 6.664 2.704 10.238 2.704 7.534 0 14.584-4.056 18.255-10.624l27.913-49.549c10.72-19.22 7.92-42.883-6.858-59.013-2.028-2.222-2.8-5.312-2.125-8.113l5.12-19.51h30.52l-11.783-34.965h0.097c26.947-5.312 52.445-15.067 75.723-28.782-23.76 14.101-49.162 23.76-75.53 28.975l11.783 34.964h-30.714l-5.12 19.318c-0.675 2.704 0.194 5.795 2.126 7.92 14.874 16.13 17.675 39.986 6.857 59.206l-27.913 49.549c-3.767 6.664-10.817 10.817-18.448 10.817-3.573 0-7.244-0.965-10.43-2.704-4.927-2.8-8.5-7.244-10.046-12.75a20.936 20.936 0 0 1 1.932-16.129l28.106-49.452c1.835-3.187 1.352-7.244-1.159-9.948-11.783-12.846-16.226-30.521-11.783-47.327l2.221-8.5h-40.47l0.098-0.193 11.976-35.253c-34.964-7.341-67.9-22.408-97.648-45.01-14.488-11.01-28.106-23.663-40.566-37.668-12.363-14.005-23.567-29.458-33.322-45.974-28.879 20.669-60.366 35.64-93.784 44.526l25.885 76.592h-78.331l-11.687 44.236c-1.932 7.05-0.097 14.391 4.926 19.897 18.834 20.476 22.31 50.417 8.692 74.37l-39.89 70.894c-3.863 7.148-11.01 11.3-18.64 11.3z m420.726-250.06c-19.027 0-37.958-2.898-56.116-8.5-17.675-5.505-34.77-13.522-50.9-24.05-31.584-20.572-58.725-50.417-78.718-86.154v-0.096l0.097-0.097c72.922-68.962 114.84-170.763 114.84-279.325 0-36.896-4.83-73.405-14.488-108.756v-0.096h0.097c27.044-13.426 55.73-20.187 85.381-20.187 122.664 0 222.437 118.221 222.437 263.582 0 35.544-5.892 70.025-17.482 102.574-11.204 31.39-27.237 59.593-47.713 83.836-20.477 24.243-44.237 43.27-70.701 56.503-27.623 13.715-56.696 20.766-86.734 20.766zM541.845 648.282c41.532 74.178 110.784 118.51 185.444 118.51 59.304 0 115.13-27.43 157.145-77.171 42.015-49.838 65.195-115.903 65.099-186.217 0-145.265-99.677-263.389-222.244-263.389-29.555 0-58.24 6.761-85.188 20.09a415.51 415.51 0 0 1 14.488 108.659c0 27.623-2.705 55.15-8.114 81.904-5.215 25.982-12.942 51.287-23.084 75.24-9.948 23.567-22.118 45.975-36.22 66.548-13.907 20.572-29.844 39.31-47.326 55.826zM382.382 754.72h-74.66l8.306-24.436h58.144v0.097l8.21 24.34z m-74.37-0.29h74.08l-8.113-23.952h-57.758l-8.21 23.953z m472.11-50.127c-8.597 0-16.517-5.409-19.704-13.426-2.125-5.215-2.028-10.914 0.29-16.13 2.221-5.215 6.374-9.175 11.59-11.3 27.817-11.107 48.872-34.77 56.31-63.36 2.994-11.3 14.584-18.061 25.884-15.067 11.3 3.187 18.062 14.97 15.068 26.174-11.011 41.725-41.532 76.013-81.615 91.757-2.318 0.772-4.926 1.352-7.824 1.352z m68.865-119.863a20 20 0 0 0-10.431 2.898 20.92 20.92 0 0 0-9.755 12.749c-7.534 28.686-28.59 52.446-56.503 63.553-5.216 2.125-9.272 6.085-11.494 11.204-2.221 5.12-2.318 10.818-0.193 15.937 3.188 7.92 11.011 13.232 19.51 13.232 2.801 0 5.41-0.483 7.727-1.449C827.835 686.82 858.26 652.63 869.27 611c2.994-11.107-3.767-22.697-14.874-25.788-1.739-0.483-3.574-0.773-5.409-0.773zM345.004 687.496c-148.742 0-269.667-142.947-269.667-318.636S196.358 50.128 345.004 50.128c53.315 0 104.988 18.448 149.224 53.315 21.346 16.806 40.566 37.089 57.082 60.366 16.613 23.374 30.328 49.355 40.663 77.269 5.022 13.425 9.369 27.816 12.846 42.69 6.568 27.72 9.851 56.31 9.851 84.996 0 23.277-2.124 46.554-6.374 69.155-4.153 22.021-10.238 43.463-18.255 63.94a336.104 336.104 0 0 1-28.782 57.082c-11.204 17.675-23.954 33.998-37.958 48.582-10.142 10.625-21.442 20.67-33.516 29.748-43.463 32.84-93.591 50.225-144.781 50.225z m0-637.078c-148.549 0-269.474 142.85-269.474 318.442s120.828 318.443 269.474 318.443c51.19 0 101.125-17.289 144.588-50.032 12.073-9.079 23.374-19.123 33.515-29.748 58.048-60.462 91.37-147.486 91.37-238.663 0-28.686-3.284-57.275-9.851-84.995a354.664 354.664 0 0 0-12.846-42.69C548.8 125.27 452.02 50.417 345.004 50.417zM159.559 345.873c-1.255 0-2.704-0.193-4.153-0.483a21.478 21.478 0 0 1-13.425-9.08c-3.091-4.732-4.25-10.334-3.091-15.84 17.579-85.38 75.047-158.206 153.764-194.909 5.023-2.414 10.721-2.704 16.033-0.772 5.313 1.931 9.562 5.795 11.977 11.01 4.926 10.528 0.386 23.084-10.238 28.107-66.74 31.1-115.42 92.818-130.1 164.968-2.126 9.948-10.625 16.999-20.767 16.999z m141.981-222.05c-2.994 0-5.988 0.676-8.79 2.028-78.62 36.606-136.088 109.431-153.57 194.62-2.222 11.397 4.926 22.311 16.323 24.726 1.449 0.29 2.897 0.483 4.153 0.483 9.948 0 18.351-6.954 20.476-16.806 14.778-72.246 63.457-134.06 130.294-165.161 5.022-2.415 8.886-6.568 10.721-11.784 1.932-5.312 1.642-10.914-0.676-15.937a20.3 20.3 0 0 0-11.784-10.817c-2.414-0.966-4.829-1.352-7.147-1.352z" fill="#ffffff" p-id="9107"></path></svg>