<?xml version="1.0" standalone="no"?><!DOCTYPE svg PUBLIC "-//W3C//DTD SVG 1.1//EN" "http://www.w3.org/Graphics/SVG/1.1/DTD/svg11.dtd"><svg t="1587719163705" class="icon" viewBox="0 0 1040 1024" version="1.1" xmlns="http://www.w3.org/2000/svg" p-id="4105" xmlns:xlink="http://www.w3.org/1999/xlink" width="203.125" height="200"><defs><style type="text/css"></style></defs><path d="M977.942011 981.24115 872.948749 981.24115 674.616658 981.24115l-73.074296 0L154.61645 981.24115 46.01501 981.24115c-25.196869 0-45.692668-20.992103-45.692668-46.88482 0-25.858948 20.4958-46.851051 45.692668-46.851051l26.38902 0L72.40403 127.123282c0-46.520523 36.885072-84.365456 82.213443-84.365456l446.924889 0c45.295626 0 82.213443 37.844933 82.213443 84.365456l0 117.839849 189.192943 0c45.328371 0 82.213443 37.844933 82.213443 84.365456l0 558.176692 22.779819 0c25.196869 0 45.692668 20.992103 45.692668 46.851051C1023.63468 960.249047 1003.13888 981.24115 977.942011 981.24115L977.942011 981.24115zM592.436984 329.329611 592.436984 136.493697 163.789367 136.493697l0 751.011582 428.64864 0L592.438007 329.329611 592.436984 329.329611zM863.810624 338.699002 683.755806 338.699002l0 548.806277 180.054819 0L863.810624 338.699002 863.810624 338.699002zM313.680189 346.512968l-79.168084 0c-25.229614 0-45.691645-20.992103-45.691645-46.883797 0-25.858948 20.462031-46.88482 45.691645-46.88482l79.168084 0c25.196869 0 45.658899 21.024849 45.658899 46.88482C359.339088 325.520865 338.877057 346.512968 313.680189 346.512968L313.680189 346.512968zM313.680189 519.151887l-79.168084 0c-25.229614 0-45.691645-20.992103-45.691645-46.851051 0-25.892717 20.462031-46.88482 45.691645-46.88482l79.168084 0c25.196869 0 45.658899 20.992103 45.658899 46.88482C359.339088 498.159784 338.877057 519.151887 313.680189 519.151887L313.680189 519.151887zM313.680189 691.889043l-79.168084 0c-25.229614 0-45.691645-20.993127-45.691645-46.883797 0-25.859971 20.462031-46.852074 45.691645-46.852074l79.168084 0c25.196869 0 45.658899 20.993127 45.658899 46.852074C359.339088 670.895917 338.877057 691.889043 313.680189 691.889043L313.680189 691.889043zM521.713222 346.512968l-79.167061 0c-25.229614 0-45.692668-20.992103-45.692668-46.883797 0-25.858948 20.463054-46.88482 45.692668-46.88482l79.167061 0c25.263383 0 45.692668 21.024849 45.692668 46.88482C567.405891 325.520865 546.942837 346.512968 521.713222 346.512968L521.713222 346.512968zM773.749446 546.930557c-25.196869 0-45.658899-21.058618-45.658899-46.883797l0-44.832068c0-25.858948 20.462031-46.851051 45.658899-46.851051 25.230638 0 45.691645 20.992103 45.691645 46.851051l0 44.832068C819.442114 525.872962 798.980084 546.930557 773.749446 546.930557L773.749446 546.930557zM773.815961 757.414409c-25.229614 0-45.692668-21.025872-45.692668-46.88482l0-45.228087c0-25.858948 20.463054-46.88482 45.692668-46.88482 25.197892 0 45.659923 20.992103 45.659923 46.88482l0 45.228087C819.47486 736.388537 799.013853 757.414409 773.815961 757.414409L773.815961 757.414409zM521.713222 519.151887l-79.167061 0c-25.229614 0-45.692668-20.992103-45.692668-46.851051 0-25.892717 20.463054-46.88482 45.692668-46.88482l79.167061 0c25.263383 0 45.692668 20.992103 45.692668 46.88482C567.405891 498.159784 546.942837 519.151887 521.713222 519.151887L521.713222 519.151887zM521.713222 691.889043l-79.167061 0c-25.229614 0-45.692668-20.993127-45.692668-46.883797 0-25.859971 20.463054-46.852074 45.692668-46.852074l79.167061 0c25.263383 0 45.692668 20.993127 45.692668 46.852074C567.405891 670.895917 546.942837 691.889043 521.713222 691.889043L521.713222 691.889043z" p-id="4106" fill="#ffffff"></path></svg>