<svg xmlns="http://www.w3.org/2000/svg" xmlns:xlink="http://www.w3.org/1999/xlink" width="25" height="25" viewBox="0 0 25 25">
  <defs>
    <style>
      .cls-1 {
        fill: none;
      }

      .cls-2 {
        clip-path: url(#clip-path);
      }

      .cls-3 {
        fill: #333;
        stroke: #333;
        stroke-width: 0.2px;
      }
    </style>
    <clipPath id="clip-path">
      <rect id="矩形_623" data-name="矩形 623" class="cls-1" width="25" height="25" transform="translate(1073 629)"/>
    </clipPath>
  </defs>
  <g id="蒙版组_182" data-name="蒙版组 182" class="cls-2" transform="translate(-1073 -629)">
    <path id="路径_666" data-name="路径 666" class="cls-3" d="M17.977,281.769l-1.045-1.563q.456-.391.9-.828a.475.475,0,0,0,.036-.624.373.373,0,0,0-.564-.04,13.165,13.165,0,0,1-6.371,3.69,9.566,9.566,0,0,1-5.243-.393,12.945,12.945,0,0,1-3.609-2.038,11.343,11.343,0,0,1-1.344-1.234.373.373,0,0,0-.565-.011.476.476,0,0,0-.01.625,10.967,10.967,0,0,0,1.072,1.025L.3,281.722a.474.474,0,0,0,.071.62.374.374,0,0,0,.244.093.386.386,0,0,0,.316-.171l.956-1.366a13.952,13.952,0,0,0,2.853,1.675l-.634,1.514a.463.463,0,0,0,.195.587.366.366,0,0,0,.168.041.4.4,0,0,0,.363-.256l.665-1.589a10.648,10.648,0,0,0,3.118.611v1.683a.4.4,0,1,0,.8,0v-1.682a10.109,10.109,0,0,0,1.652-.2,10.846,10.846,0,0,0,1.753-.523l.7,1.611a.4.4,0,0,0,.36.25.367.367,0,0,0,.173-.044.464.464,0,0,0,.187-.59l-.674-1.55a14.465,14.465,0,0,0,2.725-1.7l1.045,1.563a.387.387,0,0,0,.322.179.373.373,0,0,0,.237-.087A.473.473,0,0,0,17.977,281.769Z" transform="translate(1076.445 359.896)"/>
  </g>
</svg>
