<?xml version="1.0" standalone="no"?><!DOCTYPE svg PUBLIC "-//W3C//DTD SVG 1.1//EN" "http://www.w3.org/Graphics/SVG/1.1/DTD/svg11.dtd"><svg t="1587543238691" class="icon" viewBox="0 0 1024 1024" version="1.1" xmlns="http://www.w3.org/2000/svg" p-id="11620" xmlns:xlink="http://www.w3.org/1999/xlink" width="200" height="200"><defs><style type="text/css"></style></defs><path d="M510.728159 1024c-280.478088 0-508.430279-229.482072-508.430279-511.49004S230.250072 1.01992 510.728159 1.01992s508.430279 229.482072 508.430279 511.49004S791.206247 1024 510.728159 1024z m0-971.984064c-252.430279 0-457.434263 206.533865-457.434263 460.494024s205.003984 460.494024 457.434263 460.494024 457.434263-206.533865 457.434263-460.494024S763.158438 52.015936 510.728159 52.015936z" fill="#ffffff" p-id="11621"></path><path d="M510.728159 1024c-82.613546 0-159.61753-55.075697-216.223107-155.537849-54.055777-95.36255-83.633466-221.832669-83.633466-356.462151s29.577689-260.589641 83.633466-356.462151c56.605578-99.952191 133.099602-155.537849 216.223107-155.537849 65.784861 0 128 34.677291 179.505976 100.462151 8.669323 11.219124 6.629482 27.027888-4.079681 35.697212-11.219124 8.669323-27.027888 6.629482-35.697211-4.079682-29.067729-36.717131-77.003984-81.083665-139.219123-81.083665-63.74502 0-124.430279 45.896414-171.346614 129.52988-49.466135 88.223108-77.003984 205.513944-77.003984 330.964144s27.537849 243.250996 77.003984 330.964143c46.916335 83.633466 108.111554 129.52988 171.346614 129.529881 63.74502 0 124.430279-45.896414 171.346613-129.529881 49.466135-88.223108 77.003984-205.513944 77.003984-330.964143 0-18.358566-0.50996-37.227092-2.039841-55.585658-1.01992-14.278884 9.689243-26.007968 23.968128-27.027888 14.278884-1.01992 26.007968 9.689243 27.027888 23.968128 1.01992 19.378486 2.039841 39.266932 2.039841 58.645418 0 134.119522-29.577689 260.589641-83.633466 356.462151-56.605578 100.972112-133.609562 156.047809-216.223108 156.047809z" fill="#ffffff" p-id="11622"></path><path d="M770.29788 381.450199c-12.239044 0-22.438247-8.669323-24.988047-20.908366-10.199203-54.055777-26.007968-103.521912-46.406375-147.378486-6.119522-12.749004-0.50996-28.047809 12.239044-33.657371 12.749004-6.119522 28.047809-0.50996 33.657371 12.239044 22.438247 47.936255 39.266932 101.482072 50.486055 159.61753 2.549801 13.768924-6.629482 27.027888-20.398406 30.087649h-4.589642zM510.728159 1024c-14.278884 0-25.498008-11.219124-25.498008-25.498008V26.517928c0-14.278884 11.219124-25.498008 25.498008-25.498008s25.498008 11.219124 25.498008 25.498008v971.984064c0 14.278884-11.219124 25.498008-25.498008 25.498008z" fill="#ffffff" p-id="11623"></path><path d="M993.66043 553.816733h-965.864542c-14.278884 0-25.498008-11.219124-25.498008-25.498008s11.219124-25.498008 25.498008-25.498008h965.864542c14.278884 0 25.498008 11.219124 25.498008 25.498008s-11.219124 25.498008-25.498008 25.498008z" fill="#ffffff" p-id="11624"></path></svg>