<svg xmlns="http://www.w3.org/2000/svg" xmlns:xlink="http://www.w3.org/1999/xlink" width="25" height="25" viewBox="0 0 25 25">
  <defs>
    <style>
      .cls-1 {
        fill: none;
      }

      .cls-2 {
        clip-path: url(#clip-path);
      }

      .cls-3 {
        fill: #333;
      }
    </style>
    <clipPath id="clip-path">
      <rect id="矩形_623" data-name="矩形 623" class="cls-1" width="25" height="25" transform="translate(821 628)"/>
    </clipPath>
  </defs>
  <g id="蒙版组_181" data-name="蒙版组 181" class="cls-2" transform="translate(-821 -628)">
    <g id="组_1066" data-name="组 1066" transform="translate(825 631.001)">
      <path id="路径_655" data-name="路径 655" class="cls-3" d="M272.367,189.376c-.249-.23-.363-.37-.688-.37h-1.273V186.7a6.382,6.382,0,0,0-12.727,0v2.31h-1.273c-.326,0-.439.14-.688.37s-.16.557-.16.859v9.435c0,.3-.088.579.16.81a.843.843,0,0,0,.688.32h15.273a.843.843,0,0,0,.688-.32c.248-.231.16-.508.16-.81v-9.435C272.527,189.933,272.615,189.607,272.367,189.376ZM258.74,186.7c0-2.605,2.491-4.717,5.3-4.717s5.3,2.112,5.3,4.717v2.31H258.74Zm12.727,12.383c0,.151.043.375-.081.49s-.18.247-.344.247h-14c-.163,0-.22-.132-.344-.247s-.081-.339-.081-.49v-8.256c0-.151-.043-.425.081-.54s.18-.3.344-.3h14c.163,0,.22.181.344.3s.081.388.081.54Z" transform="translate(-255.543 -180.8)"/>
      <path id="路径_656" data-name="路径 656" class="cls-3" d="M457.593,640h-2.554c-.353,0-.639.172-.639.511s.285.511.639.511h2.554c.353,0,.639-.172.639-.511S457.946,640,457.593,640Z" transform="translate(-447.816 -625.926)"/>
    </g>
  </g>
</svg>
