<svg xmlns="http://www.w3.org/2000/svg" xmlns:xlink="http://www.w3.org/1999/xlink" width="25" height="25" viewBox="0 0 25 25">
  <defs>
    <style>
      .cls-1 {
        fill: none;
      }

      .cls-2 {
        clip-path: url(#clip-path);
      }

      .cls-3 {
        fill: #333;
      }
    </style>
    <clipPath id="clip-path">
      <rect id="矩形_624" data-name="矩形 624" class="cls-1" width="25" height="25" transform="translate(823 699)"/>
    </clipPath>
  </defs>
  <g id="蒙版组_183" data-name="蒙版组 183" class="cls-2" transform="translate(-823 -699)">
    <g id="组_1160" data-name="组 1160" transform="translate(-0.825 0.363)">
      <path id="路径_657" data-name="路径 657" class="cls-3" d="M63.26,20.919c-3.2,0-8.965-4.969-9.048-9.856V5.47a1.83,1.83,0,0,1,1.6-1.731,11.3,11.3,0,0,0,3.214-.789,7.76,7.76,0,0,0,2.917-1.59,2.016,2.016,0,0,1,2.372-.106,12.416,12.416,0,0,0,2.941,1.672A24.864,24.864,0,0,0,70.6,3.68a1.936,1.936,0,0,1,1.565,1.778,56.513,56.513,0,0,1-.059,5.7C71.348,17.457,66.391,20.919,63.26,20.919Zm0-18.84a.775.775,0,0,0-.486.153A8.651,8.651,0,0,1,59.43,4.057a12.048,12.048,0,0,1-3.558.848.66.66,0,0,0-.474.589V11.04c.083,4.345,5.42,8.7,7.863,8.7s6.973-2.9,7.708-8.69a45.155,45.155,0,0,0,0-5.534.755.755,0,0,0-.581-.659,25.508,25.508,0,0,1-3.558-.812A13.338,13.338,0,0,1,63.7,2.2a.739.739,0,0,0-.474-.118Z" transform="translate(772.613 700.718)"/>
      <path id="路径_658" data-name="路径 658" class="cls-3" d="M270.055,348.435l-6.549,5.8a.936.936,0,0,1-1.089.1l-.173-.137-3.56-3.537a.81.81,0,0,1,.053-1.2.945.945,0,0,1,1.275.05l2.949,2.927,5.9-5.231a.945.945,0,0,1,1.275.05.81.81,0,0,1-.053,1.2" transform="translate(571.701 361.198)"/>
    </g>
  </g>
</svg>
